<?xml version="1.0" encoding="UTF-8"?>
<svg width="146px" height="29px" viewBox="0 0 146 29" version="1.1" xmlns="http://www.w3.org/2000/svg" xmlns:xlink="http://www.w3.org/1999/xlink">
    <title>icon_logo</title>
    <g id="medical-3" stroke="none" stroke-width="1" fill="none" fill-rule="evenodd">
        <g id="nav_bar" transform="translate(-170.000000, -45.000000)" fill="#0074AD">
            <path d="M267.267985,50.7999856 C269.519794,50.7999856 271.328246,52.0060208 271.962594,53.4977624 L271.962594,52.958496 C271.962594,51.8474555 272.914297,50.8957026 274.056268,50.8957026 C275.167189,50.8957026 276.181713,51.8474555 276.181713,52.958496 L276.181713,65.621324 C276.181713,65.7798893 276.149942,65.939177 276.11817,66.0973811 L276.11817,67.1766363 C276.11817,72.349693 271.296475,74 267.933383,74 C265.966795,74 264.381105,73.4603724 263.683214,73.1432418 C262.794694,72.7621795 262.318842,72.1268348 262.318842,71.3657937 C262.318842,70.4136796 263.080277,69.7154867 263.968436,69.7154867 C264.158704,69.7154867 264.412877,69.7469108 264.825185,69.874052 C265.459533,70.0329785 266.537961,70.4136796 267.965515,70.4136796 C270.535401,70.4136796 271.962594,69.0490791 271.962594,67.1766363 L271.962594,65.018487 C271.709144,66.001664 270.027417,67.7155415 267.267985,67.7155415 C263.778529,67.7155415 259.59082,65.018487 259.59082,59.2422321 C259.59082,53.5927571 263.809939,50.7999856 267.267985,50.7999856 Z M308.322936,50.7999856 C311.780936,50.7999856 316,53.5228078 316,59.030783 C316,64.6623626 311.812707,67.2918652 308.322936,67.2918652 C305.563539,67.2918652 303.881835,65.6209144 303.628027,64.6623626 L303.628027,65.2501007 C303.628027,65.3737053 303.628027,65.4980141 303.596256,65.5902774 L303.596256,71.1598787 C303.596256,72.2740807 302.613155,73.1713584 301.502248,73.1713584 C300.360653,73.1713584 299.408963,72.2740807 299.408963,71.1598787 L299.408963,52.9044328 C299.408963,51.82122 300.424195,50.8933053 301.53438,50.8933053 C302.676336,50.8933053 303.628027,51.82122 303.628027,52.9044328 L303.628027,53.4301924 C304.262367,51.9758138 306.071156,50.7999856 308.322936,50.7999856 Z M249.255075,49.1428468 C250.419377,49.1428468 251.362863,50.086344 251.362863,51.2502947 L251.362863,51.2502947 L251.362863,57.1200516 L253.930898,57.1200516 C255.224405,57.1200516 256.272642,58.1686656 256.272642,59.4618225 C256.272642,60.7549794 255.224405,61.8035934 253.930898,61.8035934 L253.930898,61.8035934 L251.362863,61.8035934 L251.362863,67.7496331 C251.362863,68.9139488 250.419377,69.8570809 249.255075,69.8570809 C248.091137,69.8570809 247.147651,68.9139488 247.147651,67.7496331 L247.147651,67.7496331 L247.147651,51.2502947 C247.147651,50.086344 248.091137,49.1428468 249.255075,49.1428468 Z M242.5461,49.1428468 C243.713071,49.1428468 244.659017,50.086344 244.659017,51.2502947 L244.659017,51.2502947 L244.659017,67.7496331 C244.659017,68.9135838 243.713071,69.8570809 242.5461,69.8570809 C241.379129,69.8570809 240.433183,68.9135838 240.433183,67.7496331 L240.433183,67.7496331 L240.433183,61.8035934 L237.881874,61.8035934 C236.585361,61.8035934 235.534026,60.7549794 235.534026,59.4618225 C235.534026,58.1686656 236.585361,57.1200516 237.881874,57.1200516 L237.881874,57.1200516 L240.433183,57.1200516 L240.433183,51.2502947 C240.433183,50.086344 241.379129,49.1428468 242.5461,49.1428468 Z M287.176889,50.7999856 C289.345599,50.7999856 291.102858,51.8955849 291.796481,53.2816936 L291.871,53.441 L291.871757,52.9145784 C291.871757,51.8261434 292.823439,50.8937551 293.965024,50.8937551 C295.075922,50.8937551 296.090784,51.8261434 296.090784,52.9145784 L296.090784,65.3197649 C296.090784,66.4393385 295.075922,67.340942 293.965024,67.340942 C292.823439,67.340942 291.871757,66.4393385 291.871757,65.3197649 L291.871757,64.7291934 C291.618312,65.6923663 289.936622,67.3713728 287.176889,67.3713728 C283.687509,67.3713728 279.499892,64.7291934 279.499892,59.0704638 C279.499892,53.5359346 283.718919,50.7999856 287.176889,50.7999856 Z M192.91566,50.7999856 C193.996495,50.7999856 194.886339,51.6520846 194.886339,52.756724 C194.886339,53.0408768 194.69571,53.3562828 194.600214,53.7036605 L190.341261,65.7932652 C189.991834,66.8346797 189.228955,67.3713728 188.370581,67.3713728 C187.448905,67.3713728 186.717858,66.8346797 186.304768,65.7932652 L182.427434,56.7653976 L178.549739,65.7932652 C178.136287,66.8346797 177.37377,67.3713728 176.515396,67.3713728 C175.594082,67.3713728 174.863035,66.8346797 174.513247,65.7932652 L170.286125,53.7036605 C170.159159,53.3562828 170,53.0408768 170,52.756724 C170,51.6520846 170.858012,50.7999856 171.970679,50.7999856 C172.701365,50.7999856 173.496075,51.2418413 173.718536,51.9042657 L176.770051,61.4052423 L180.551889,52.062328 C180.901677,51.2418413 181.53759,50.7999856 182.427434,50.7999856 C183.349111,50.7999856 183.984662,51.2418413 184.302618,52.062328 L188.084456,61.4052423 L191.135609,51.9042657 C191.358432,51.2418413 192.152781,50.7999856 192.91566,50.7999856 Z M205.424232,50.7999856 C208.912976,50.7999856 213.136321,53.6087073 213.136321,58.4458319 C213.136321,60.0689804 212.248809,60.6301565 210.627045,60.6301565 L201.537014,60.5680009 C201.904488,62.8464468 203.679512,64.0636306 205.913618,64.0636306 C207.015693,64.0636306 207.535731,63.8135876 208.453894,63.4079781 C209.004584,63.1582902 209.433362,62.9089576 209.953748,62.9089576 C210.810608,62.9089576 211.330645,63.5326444 211.330645,64.3129633 C211.330645,64.8123389 211.11643,65.3738702 210.351526,66.0295227 C209.219147,66.841097 207.68899,67.3713728 205.760707,67.3713728 C201.690273,67.3713728 197.374973,64.8123389 197.374973,59.1323847 C197.374973,53.5149412 201.93514,50.7999856 205.424232,50.7999856 Z M217.750039,45 C218.8606,45 219.812302,45.9308751 219.812302,47.0167784 L219.812302,52.6020291 C219.844074,52.7263341 219.844074,52.8192097 219.844074,52.9435148 L219.844,53.469 L219.919352,53.3098952 C220.61299,51.9265609 222.370287,50.8331545 224.539044,50.8331545 C227.996729,50.8331545 232.215848,53.5636273 232.215848,59.0870787 C232.215848,64.7344819 228.028861,67.3713728 224.539044,67.3713728 C221.779251,67.3713728 220.097885,65.695727 219.844074,64.7344819 L219.844074,65.3238713 C219.844074,66.441204 218.892371,67.3410029 217.750039,67.3410029 C216.640201,67.3410029 215.624955,66.441204 215.624955,65.3238713 L215.624955,47.0167784 C215.624955,45.9308751 216.608429,45 217.750039,45 Z M268.029058,54.3548818 C265.935024,54.3548818 263.746757,56.0051888 263.746757,59.2422321 C263.746757,62.5110607 265.935024,64.1295824 268.029058,64.1295824 C269.805738,64.1295824 272.153224,62.8285525 272.153224,59.2422321 C272.153224,55.6559117 269.805738,54.3548818 268.029058,54.3548818 Z M223.77761,54.3087512 C222.001291,54.3087512 219.653805,55.5807589 219.653805,59.0870787 C219.653805,62.5933985 222.001291,63.8654062 223.77761,63.8654062 C225.871283,63.8654062 228.060272,62.2829891 228.060272,59.0870787 C228.060272,55.9222445 225.871283,54.3087512 223.77761,54.3087512 Z M287.937946,54.2825529 C285.844318,54.2825529 283.655738,55.8992822 283.655738,59.0704638 C283.655738,62.2727839 285.844318,63.8583746 287.937946,63.8583746 C289.714587,63.8583746 292.062021,62.5838158 292.062021,59.0704638 C292.062021,55.5571117 289.714587,54.2825529 287.937946,54.2825529 Z M307.561872,54.2658439 C305.785576,54.2658439 303.437761,55.5342875 303.437761,59.030783 C303.437761,62.5272784 305.785576,63.795722 307.561872,63.795722 C309.655519,63.795722 311.844478,62.2177387 311.844478,59.030783 C311.844478,55.8748164 309.655519,54.2658439 307.561872,54.2658439 Z M205.424232,54.3574156 C203.679512,54.3574156 201.812533,55.356167 201.537014,57.7592792 L209.188495,57.7592792 C208.882324,55.356167 207.168604,54.3574156 205.424232,54.3574156 Z" id="icon_logo"></path>
        </g>
    </g>
</svg>